<svg width="171" height="38" viewBox="0 0 171 38" fill="none" xmlns="http://www.w3.org/2000/svg">
<path d="M66.0191 11.6084C64.6202 11.6084 63.5322 12.5424 63.5322 13.6098C63.5322 14.6773 64.6202 15.6113 66.0191 15.6113H68.6613C70.0602 15.6113 71.1481 14.6773 71.1481 13.6098C71.1481 12.5424 70.0602 11.6084 68.6613 11.6084H66.0191ZM64.6202 13.6098C64.6202 12.9427 65.2419 12.409 66.1745 12.409H68.6613C69.4384 12.409 70.2156 12.9427 70.2156 13.6098C70.2156 14.277 69.5939 14.8107 68.6613 14.8107H66.1745C65.2419 14.8107 64.6202 14.277 64.6202 13.6098Z" fill="#FAFAFB"/>
<path d="M89.6436 11.6084V12.2755H92.7521V14.8107H89.6436V15.4778C89.6436 15.4778 96.6378 15.4778 96.7932 15.4778V14.8107H93.6847V12.409C93.6847 12.409 96.6378 12.409 96.7932 12.409V11.7418C96.6378 11.6084 89.6436 11.6084 89.6436 11.6084Z" fill="#FAFAFB"/>
<path d="M99.5912 11.6084C98.8141 11.6084 98.1924 12.1421 98.1924 12.8093C98.1924 13.4764 98.8141 14.0101 99.5912 14.0101H103.788C104.099 14.0101 104.254 14.1436 104.254 14.4104C104.254 14.6773 103.943 14.8107 103.788 14.8107H98.3478V15.4778H103.943C104.72 15.4778 105.342 14.9441 105.342 14.277C105.342 13.6098 104.72 13.0761 103.943 13.0761H99.7467C99.4358 13.0761 99.2804 12.9427 99.2804 12.6758C99.2804 12.409 99.4358 12.2755 99.7467 12.2755H105.187V11.6084C105.031 11.6084 99.5912 11.6084 99.5912 11.6084Z" fill="#FAFAFB"/>
<path d="M165.026 11.6084C164.249 11.6084 163.627 12.1421 163.627 12.8093C163.627 13.4764 164.249 14.0101 165.026 14.0101H169.222C169.533 14.0101 169.689 14.1436 169.689 14.4104C169.689 14.6773 169.378 14.8107 169.222 14.8107H163.782V15.4778H169.378C170.155 15.4778 170.777 14.9441 170.777 14.277C170.777 13.6098 170.155 13.0761 169.378 13.0761H165.181C164.87 13.0761 164.715 12.9427 164.715 12.6758C164.715 12.409 164.87 12.2755 165.181 12.2755H170.621V11.6084C170.466 11.6084 165.026 11.6084 165.026 11.6084Z" fill="#FAFAFB"/>
<path d="M114.512 11.6084C113.269 11.6084 112.181 12.5424 112.181 13.6098C112.181 14.6773 113.269 15.6113 114.512 15.6113H119.019C119.33 15.6113 119.486 15.4779 119.486 15.211V13.6098C119.486 13.4764 119.33 13.2096 119.019 13.2096H114.201V13.8767H118.398V14.8107H114.668C113.89 14.8107 113.113 14.277 113.113 13.6098C113.113 12.9427 113.735 12.409 114.668 12.409H119.33V11.7418C119.33 11.6084 114.512 11.6084 114.512 11.6084Z" fill="#FAFAFB"/>
<path d="M148.55 11.6084C147.307 11.6084 146.219 12.5424 146.219 13.6098C146.219 14.6773 147.307 15.6113 148.55 15.6113H152.902C153.213 15.6113 153.368 15.4779 153.368 15.211V13.6098C153.368 13.4764 153.213 13.2096 152.902 13.2096H148.084V13.8767H152.28V14.8107H148.55C147.773 14.8107 146.996 14.277 146.996 13.6098C146.996 12.9427 147.618 12.409 148.55 12.409H153.213V11.7418C153.368 11.6084 148.55 11.6084 148.55 11.6084Z" fill="#FAFAFB"/>
<path d="M155.389 11.6084C155.078 11.6084 154.923 11.7418 154.923 12.0087V15.211C154.923 15.3444 155.078 15.6113 155.389 15.6113H161.762V14.9441H155.855V14.0101H161.762V13.343H155.855V12.409H161.762V11.7418C161.762 11.6084 155.389 11.6084 155.389 11.6084Z" fill="#FAFAFB"/>
<path d="M72.2354 11.6084C72.2354 11.6084 72.2354 15.4779 72.2354 15.6113H73.1679V14.0101H76.4319L78.1416 15.6113C78.1416 15.6113 79.385 15.6113 79.5404 15.6113C79.385 15.4779 77.8307 14.0101 77.8307 14.0101H78.1416C78.9187 14.0101 79.5404 13.4764 79.5404 12.8093C79.5404 12.1421 78.9187 11.6084 78.1416 11.6084C78.1416 11.6084 72.3908 11.6084 72.2354 11.6084ZM73.3233 13.2096V12.409H77.9861C78.297 12.409 78.6079 12.5424 78.6079 12.8093C78.6079 13.0761 78.297 13.2096 77.9861 13.2096H73.3233Z" fill="#FAFAFB"/>
<path d="M81.0947 11.6084C81.0947 11.6084 81.0947 15.4779 81.0947 15.6113H82.0273V14.0101H85.2913L87.001 15.6113C87.001 15.6113 88.2444 15.6113 88.3998 15.6113C88.2444 15.4779 86.6901 14.0101 86.6901 14.0101H87.001C87.7781 14.0101 88.3998 13.4764 88.3998 12.8093C88.3998 12.1421 87.7781 11.6084 87.001 11.6084C86.8455 11.6084 81.0947 11.6084 81.0947 11.6084ZM82.0273 13.2096V12.409H86.6901C87.001 12.409 87.3118 12.5424 87.3118 12.8093C87.3118 13.0761 87.001 13.2096 86.6901 13.2096H82.0273Z" fill="#FAFAFB"/>
<path d="M129.589 11.6084C129.589 11.6084 129.589 15.4779 129.589 15.6113H130.521V14.0101H133.785L135.495 15.6113C135.495 15.6113 136.738 15.6113 136.894 15.6113C136.738 15.4779 135.184 14.0101 135.184 14.0101H135.495C136.272 14.0101 136.894 13.4764 136.894 12.8093C136.738 12.1421 136.117 11.6084 135.34 11.6084H129.589ZM130.521 13.2096V12.409H135.184C135.495 12.409 135.806 12.5424 135.806 12.8093C135.806 13.0761 135.495 13.2096 135.184 13.2096H130.521Z" fill="#FAFAFB"/>
<path d="M54.9834 11.6084C54.9834 11.6084 54.9834 15.4779 54.9834 15.6113H55.916V12.6758L58.5582 14.1436L61.3559 12.6758V15.6113H62.2885C62.2885 15.6113 62.2885 11.7418 62.2885 11.6084H61.5113L58.5582 13.0761L55.7605 11.6084C55.7605 11.6084 55.1388 11.6084 54.9834 11.6084Z" fill="#FAFAFB"/>
<path d="M124.459 11.6084C124.304 11.6084 124.148 11.6084 124.148 11.7418C124.148 11.7418 120.573 15.4779 120.418 15.6113C120.573 15.6113 121.661 15.6113 121.661 15.6113L122.128 15.0776H126.791L127.257 15.6113C127.257 15.6113 128.345 15.6113 128.5 15.6113C128.5 15.4779 124.77 11.7418 124.77 11.7418C124.77 11.7418 124.615 11.6084 124.459 11.6084ZM123.527 13.7433L124.459 12.6758L125.392 13.7433L126.013 14.4104H122.749L122.905 14.277L123.527 13.7433Z" fill="#FAFAFB"/>
<path d="M141.867 11.6084C141.712 11.6084 141.556 11.6084 141.556 11.7418C141.556 11.7418 137.982 15.4779 137.826 15.6113C137.982 15.6113 139.07 15.6113 139.07 15.6113L139.536 15.0776H144.043L144.51 15.6113C144.51 15.6113 145.598 15.6113 145.753 15.6113C145.753 15.4779 142.023 11.7418 142.023 11.7418C142.023 11.7418 142.023 11.6084 141.867 11.6084ZM140.779 13.7433L141.712 12.6758L142.644 13.7433L143.266 14.4104H140.002L140.158 14.277L140.779 13.7433Z" fill="#FAFAFB"/>
<path d="M100.368 22.2826L99.9021 22.0157C99.5913 21.8823 99.4359 21.7489 99.2804 21.482C99.125 21.3486 99.125 21.0817 99.125 20.9483C99.125 20.6814 99.2804 20.4146 99.4359 20.1477C99.7467 20.0143 100.058 19.8809 100.368 19.8809C100.679 19.8809 101.146 20.0143 101.456 20.1477V20.8149C101.146 20.548 100.835 20.4146 100.368 20.4146C100.213 20.4146 100.058 20.4146 99.9021 20.548C99.7467 20.6814 99.7467 20.6814 99.7467 20.8149C99.7467 20.9483 99.7467 21.0817 99.9021 21.0817C100.058 21.2152 100.213 21.3486 100.368 21.3486L100.835 21.6154C101.456 21.8823 101.612 22.2826 101.612 22.6829C101.612 22.9497 101.456 23.2166 101.301 23.4835C100.99 23.6169 100.679 23.7503 100.368 23.7503C99.9021 23.7503 99.5913 23.6169 99.125 23.35V22.6829C99.4359 23.0832 99.9021 23.2166 100.368 23.2166C100.524 23.2166 100.679 23.2166 100.835 23.0832C100.99 22.9497 100.99 22.8163 100.99 22.6829C100.835 22.6829 100.679 22.416 100.368 22.2826Z" fill="#FAFAFB"/>
<path d="M102.389 20.2822C102.545 20.2822 102.545 20.2822 102.7 20.4157C102.7 20.4157 102.855 20.5491 102.855 20.6825C102.855 20.8159 102.855 20.8159 102.7 20.9494C102.7 20.9494 102.545 21.0828 102.389 21.0828C102.234 21.0828 102.234 21.0828 102.078 20.9494C102.078 20.9494 101.923 20.8159 101.923 20.6825C101.923 20.5491 101.923 20.5491 102.078 20.4157C102.234 20.2822 102.234 20.2822 102.389 20.2822ZM102.078 21.3497H102.7V23.8848H102.078V21.3497Z" fill="#FAFAFB"/>
<path d="M103.943 21.3488V21.6156C104.254 21.3488 104.565 21.2153 104.876 21.2153C105.031 21.2153 105.187 21.2153 105.342 21.3488C105.497 21.4822 105.653 21.4822 105.653 21.749C105.808 21.8825 105.808 22.1493 105.808 22.4162V23.8839H105.187V22.4162C105.187 22.1493 105.187 22.0159 105.031 21.8825C104.876 21.7491 104.72 21.749 104.565 21.749C104.254 21.749 104.099 21.8825 103.788 22.1493V24.0173H103.166V21.4822H103.943V21.3488Z" fill="#FAFAFB"/>
<path d="M108.606 23.2168V23.7505C108.295 23.8839 107.984 23.8839 107.673 23.8839C107.207 23.8839 106.896 23.7505 106.585 23.4836C106.275 23.2168 106.119 22.9499 106.119 22.5496C106.119 22.1493 106.275 21.8825 106.585 21.6156C106.896 21.3488 107.207 21.2153 107.673 21.2153C107.829 21.2153 107.984 21.2153 108.14 21.2153C108.295 21.2153 108.451 21.3488 108.606 21.3488V21.8825C108.295 21.749 107.984 21.6156 107.829 21.6156C107.518 21.6156 107.363 21.749 107.207 21.8825C107.052 22.0159 106.896 22.2828 106.896 22.5496C106.896 22.8165 107.052 22.9499 107.207 23.2168C107.363 23.3502 107.673 23.4836 107.984 23.4836C108.14 23.4836 108.451 23.3502 108.606 23.2168Z" fill="#FAFAFB"/>
<path d="M111.714 22.6831H109.694C109.694 22.9499 109.849 23.0833 110.005 23.2168C110.16 23.3502 110.471 23.4836 110.626 23.4836C110.937 23.4836 111.404 23.3502 111.714 23.2168V23.6171C111.559 23.7505 111.404 23.7505 111.248 23.8839C111.093 23.8839 110.937 23.8839 110.626 23.8839C110.316 23.8839 110.005 23.8839 109.849 23.7505C109.694 23.6171 109.538 23.4836 109.383 23.2168C109.228 23.0833 109.228 22.8165 109.228 22.5496C109.228 22.1493 109.383 21.8825 109.538 21.6156C109.849 21.3488 110.16 21.2153 110.471 21.2153C110.937 21.2153 111.248 21.3488 111.404 21.6156C111.559 21.8825 111.714 22.1493 111.714 22.6831ZM109.538 22.2828H111.093C111.093 22.0159 110.937 21.8825 110.937 21.8825C110.782 21.749 110.626 21.749 110.471 21.749C110.316 21.749 110.16 21.749 110.005 21.8825C109.694 22.0159 109.694 22.1493 109.538 22.2828Z" fill="#FAFAFB"/>
<path d="M115.134 20.0154H115.756V23.8848H115.134V20.0154Z" fill="#FAFAFB"/>
<path d="M118.087 23.8837L117.621 23.4835C117.932 23.35 118.242 23.0832 118.553 22.8163C118.864 22.5494 119.02 22.2826 119.02 22.0157C118.864 22.1492 118.553 22.1492 118.242 22.1492C117.932 22.1492 117.621 22.0157 117.31 21.8823C116.999 21.6154 116.999 21.3486 116.999 21.0817C116.999 20.8149 117.154 20.548 117.465 20.2811C117.776 20.0143 118.087 19.8809 118.398 19.8809C118.864 19.8809 119.175 20.0143 119.486 20.2811C119.797 20.548 119.952 20.9483 119.952 21.3486C119.952 21.8823 119.797 22.2826 119.486 22.8163C119.02 23.2166 118.709 23.6169 118.087 23.8837ZM119.175 21.482C119.175 21.3486 119.175 21.2152 119.175 21.2152C119.175 20.9483 119.175 20.8149 119.02 20.6814C118.864 20.548 118.709 20.4146 118.398 20.4146C118.242 20.4146 118.087 20.4146 117.932 20.548C117.776 20.6814 117.776 20.8149 117.776 20.9483C117.776 21.0817 117.776 21.2152 117.932 21.3486C118.087 21.482 118.242 21.482 118.398 21.482C118.709 21.7489 119.02 21.6154 119.175 21.482Z" fill="#FAFAFB"/>
<path d="M121.662 23.3511H123.372V23.8848H120.574L120.885 23.618C121.351 23.2177 121.662 22.8174 121.818 22.4171C122.128 22.1503 122.284 21.8834 122.284 21.75C122.284 21.6165 122.439 21.4831 122.439 21.2162C122.439 20.9494 122.439 20.816 122.284 20.6825C122.128 20.5491 121.973 20.5491 121.662 20.5491C121.507 20.5491 121.351 20.5491 121.196 20.6825C121.04 20.816 120.885 20.9494 120.73 21.0828V20.4157C121.04 20.1488 121.507 20.0154 121.818 20.0154C122.284 20.0154 122.595 20.1488 122.75 20.4157C123.061 20.6825 123.061 20.9494 123.061 21.2162C123.061 21.3497 123.061 21.4831 122.906 21.75C122.906 21.8834 122.75 22.1503 122.595 22.4171C122.439 22.684 122.128 22.9508 121.818 23.3511H121.662Z" fill="#FAFAFB"/>
<path d="M126.014 19.8809H126.325V22.0157H126.791V22.5494H126.325V23.8837H125.703V22.5494H123.683V22.2826L126.014 19.8809ZM125.548 22.1492V20.9483L124.46 22.0157H125.548V22.1492Z" fill="#FAFAFB"/>
<path d="M0.894531 20.5481V20.6815C0.894531 21.6156 1.04996 22.4161 1.04996 23.3501C1.04996 23.617 1.04996 24.0173 1.04996 24.2841C1.04996 24.551 1.04996 24.8179 1.20539 25.0847C1.20539 25.2181 1.20539 25.3516 1.20539 25.485C1.20539 25.8853 1.51624 26.1522 1.67167 26.5524C1.98252 26.8193 2.29338 27.2196 2.60423 27.4864C3.38137 28.287 4.31393 29.0876 5.24649 30.0216C6.80077 31.4893 8.35504 32.8236 10.0647 34.1579C11.1527 34.8251 12.2407 35.6256 13.3287 36.4262C13.795 36.8265 14.5721 36.8265 15.1938 36.9599C16.2818 37.0934 17.5252 37.0934 18.6132 37.2268C19.2349 37.2268 19.8567 37.2268 20.6338 37.2268C21.2555 37.2268 21.8772 37.2268 22.4989 37.2268C23.4315 37.2268 24.5195 37.2268 25.452 37.2268C26.6954 37.0934 28.0943 37.0934 29.3377 36.9599C29.6486 36.9599 30.1148 36.9599 30.4257 36.9599C30.5811 36.9599 30.7366 36.9599 30.892 36.9599C31.3583 36.8265 31.98 36.6931 32.4463 36.4262L32.6017 36.2928C32.7571 36.2928 32.7571 36.1594 32.9125 36.1594C32.9125 36.1594 33.068 36.1594 33.068 36.0259C35.0885 34.5582 37.1091 32.9571 38.9742 31.2225C40.373 30.0216 41.6165 28.6873 43.0153 27.4864C43.3262 27.2196 43.4816 26.9527 43.7924 26.6859C44.2587 26.2856 44.2587 25.6184 44.4142 25.0847C44.5696 23.617 44.725 22.1493 44.725 20.6815C44.725 20.0144 44.725 19.4807 44.725 18.8135C44.725 18.013 44.725 17.079 44.725 16.2784C44.725 16.145 44.725 15.8781 44.725 15.7447C44.725 15.0775 44.5696 14.4104 44.5696 13.7432C44.5696 13.2095 44.4142 12.5424 44.4142 12.0086C44.4142 11.8752 44.4142 11.7418 44.4142 11.7418C44.4142 11.2081 44.1033 10.8078 43.637 10.4075C43.3262 10.1406 43.1707 9.87377 42.8599 9.60691C40.6839 7.47204 38.3525 5.33717 35.8657 3.46916C34.7777 2.53516 33.5342 1.73458 32.2908 0.800576C31.8245 0.533717 31.3583 0.400288 30.7366 0.266859C29.4931 0.133429 28.2497 0.133429 27.1617 0C26.54 0 25.7629 0 25.1412 0C24.5195 0 23.8978 0 23.2761 0C22.3435 0 21.2555 0 20.3229 0C20.1675 0 20.0121 0 19.8567 0C18.6132 0 17.5252 0.133429 16.2818 0.133429C15.8155 0.133429 15.3493 0.133429 14.883 0.266859H14.7276C14.1058 0.400288 13.6396 0.533717 13.1733 0.800576C13.0179 0.667147 12.8624 0.800576 12.707 0.800576C12.707 0.800576 12.5516 0.800576 12.5516 0.934005C10.531 2.40173 8.51047 4.00288 6.64534 5.60403C5.24649 6.8049 4.00308 8.13919 2.60423 9.47348C2.29338 9.74034 2.13795 10.0072 1.82709 10.2741C1.36081 10.6743 1.36081 11.2081 1.20539 11.8752C1.04996 13.3429 1.04996 14.8107 0.894531 16.2784V16.4118V20.1478C0.894531 20.4147 0.894531 20.4147 0.894531 20.5481ZM4.31393 16.2784C4.31393 15.6112 4.46936 14.8107 4.46936 14.1435C4.46936 13.8767 4.46936 13.4764 4.62478 13.2095C4.62478 13.2095 4.62478 13.2095 4.62478 13.0761C4.62478 12.8092 4.62478 12.5424 4.78021 12.2755C4.78021 12.0086 4.93564 11.8752 5.09107 11.6084C6.02363 10.5409 6.95619 9.60691 8.04418 8.67291C9.59846 7.20518 11.1527 5.87089 12.8624 4.5366C13.3287 4.13631 13.9504 3.73602 14.5721 3.33573C15.0384 2.93545 15.8155 2.80202 16.4373 2.66859C18.6132 2.53516 20.6338 2.40173 23.5869 2.40173C24.5195 2.40173 26.2292 2.53516 27.7834 2.53516C28.4051 2.53516 29.0269 2.66859 29.6486 2.66859C29.9594 2.66859 30.4257 2.80202 30.5811 3.06887C32.1354 4.00288 33.5342 5.20374 34.7777 6.27118C36.3319 7.60547 37.8862 8.93977 39.1296 10.2741C39.4405 10.5409 39.7513 10.9412 40.0622 11.2081C40.2176 11.4749 40.373 11.6084 40.5285 11.8752C40.6839 12.1421 40.6839 12.4089 40.6839 12.6758C40.9948 14.9441 40.9948 17.3458 40.9948 19.6141C40.9948 20.5481 40.8393 21.4821 40.8393 22.4161C40.8393 22.5496 40.8393 22.8164 40.8393 22.9498C40.8393 23.0833 40.8393 23.2167 40.8393 23.4836C40.8393 23.7504 40.8393 24.0173 40.6839 24.1507C40.6839 24.4176 40.5285 24.551 40.373 24.8179C39.4405 25.8853 38.3525 26.9527 37.2645 27.8867C35.5548 29.3545 33.8451 30.8222 31.98 32.2899C31.5137 32.6902 30.892 33.0905 30.2703 33.3573C29.804 33.6242 29.3377 33.7576 28.8714 33.7576C26.0737 34.0245 23.2761 34.0245 20.4784 34.0245C19.3904 34.0245 18.3024 34.0245 17.2144 33.8911C16.5927 33.8911 15.971 33.7576 15.3493 33.7576C15.0384 33.7576 14.7276 33.4908 14.4167 33.3573C13.1733 32.5568 12.0853 31.7562 10.9973 30.8222C9.2876 29.4879 7.5779 28.0202 6.02363 26.419C5.55735 26.0187 5.24649 25.485 4.78021 25.0847C4.62478 24.9513 4.46936 24.6844 4.31393 24.551C4.1585 24.2841 4.1585 24.1507 4.1585 23.8839C4.31393 21.4821 4.31393 18.8135 4.31393 16.2784Z" fill="#FAFAFB"/>
<path d="M17.3703 13.8764C17.3703 14.0099 17.2149 14.1433 17.2149 14.2767C16.7486 15.2107 16.4377 16.0113 15.9714 16.9453C15.0389 18.9468 14.1063 20.8148 13.3292 22.8162C13.3292 22.9496 13.1738 22.9496 13.0183 23.0831C12.8629 22.9496 12.8629 22.9496 12.7075 22.8162C11.9303 21.4819 10.9978 20.1476 10.2206 18.8133C10.2206 18.6799 10.0652 18.6799 10.0652 18.5465C10.0652 18.5465 10.0652 18.5465 9.90979 18.5465C9.90979 18.6799 9.90979 18.8133 9.90979 18.9468C9.90979 19.7473 9.90979 20.5479 9.90979 21.3485C9.90979 22.2825 9.90979 23.0831 10.0652 24.0171C10.2206 25.2179 10.2206 26.2854 10.3761 27.4862C10.3761 27.4862 10.3761 27.4862 10.3761 27.6197C10.3761 27.6197 10.3761 27.7531 10.2206 27.7531H10.0652C9.75436 27.4862 9.44351 27.2194 9.13265 26.8191C8.35552 26.0185 7.57838 25.3514 6.80124 24.5508C6.64582 24.4174 6.64582 24.2839 6.64582 24.1505C6.49039 22.8162 6.49039 21.4819 6.33496 20.0142C6.33496 18.2796 6.33496 16.4116 6.49039 14.677C6.49039 14.1433 6.64582 13.6096 6.64582 12.9424C6.64582 12.809 6.64582 12.6756 6.80124 12.6756C7.57838 11.875 8.35552 11.2079 9.13265 10.4073C9.28808 10.2739 9.44351 10.2739 9.59893 10.5407C10.2206 11.4747 10.6869 12.4087 11.3086 13.3427C11.7749 14.0099 12.0858 14.8105 12.5521 15.4776C12.5521 15.611 12.7075 15.611 12.8629 15.7445C12.8629 15.611 13.0183 15.611 13.0183 15.4776C13.7955 13.8764 14.5726 12.1419 15.1943 10.5407C15.9714 8.6727 16.904 6.67126 17.6811 4.66982C17.6811 4.53639 17.8366 4.40296 17.992 4.40296C19.2354 4.40296 20.4788 4.26953 21.7223 4.26953C22.0331 4.26953 22.0331 4.26953 22.0331 4.53639C22.0331 6.27097 22.0331 7.87212 22.0331 9.60671C22.0331 17.2122 22.0331 24.6842 22.0331 32.2897C22.0331 32.69 22.0331 32.69 21.5668 32.69C20.4788 32.69 19.3908 32.69 18.3029 32.5566C17.8366 32.5566 17.8366 32.5566 17.8366 32.1563C17.8366 26.2854 17.8366 20.4145 17.8366 14.677C17.8366 14.5436 17.8366 14.4102 17.8366 14.2767C17.5257 14.0099 17.5257 14.0099 17.3703 13.8764C17.5257 13.8764 17.3703 13.8764 17.3703 13.8764Z" fill="#FAFAFB"/>
<path d="M23.8975 18.4132C23.8975 13.8766 23.8975 9.20655 23.8975 4.66995C23.8975 4.53652 23.8975 4.53652 23.8975 4.40309C23.8975 4.13623 23.8975 4.13623 24.2083 4.13623C24.6746 4.13623 25.2963 4.13623 25.7626 4.13623C27.006 4.13623 28.094 4.26966 29.3374 4.26966C29.4928 4.26966 29.8037 4.40309 29.9591 4.53652C32.446 6.2711 34.622 8.27254 36.7979 10.274C37.4196 10.9411 38.0414 11.4748 38.8185 12.142C39.1293 12.4089 39.2848 12.8091 39.2848 13.076C39.2848 13.7431 39.4402 14.5437 39.4402 15.2109C39.4402 15.4777 39.4402 15.4777 39.1293 15.4777C38.1968 15.4777 37.1088 15.4777 36.1762 15.4777C36.0208 15.4777 35.8654 15.3443 35.8654 15.2109C35.8654 14.8106 35.8654 14.4103 35.8654 14.01C35.8654 13.7431 35.7099 13.6097 35.5545 13.4763C33.534 11.4748 31.2025 9.60684 29.0266 7.73882C28.8711 7.60539 28.8711 7.60539 28.7157 7.47197C28.7157 7.47197 28.5603 7.33854 28.4049 7.47197L28.2494 7.60539V7.73882C28.2494 14.6772 28.2494 21.6155 28.2494 28.5538C28.2494 28.6872 28.2494 28.8207 28.4049 28.9541C28.5603 28.9541 28.7157 28.8207 28.7157 28.8207C31.0471 26.9527 33.3785 25.0846 35.5545 22.9498C35.7099 22.8163 35.8654 22.6829 35.8654 22.4161C35.8654 22.0158 35.8654 21.7489 35.8654 21.3486C35.8654 21.0818 35.8654 21.0818 35.5545 21.0818C35.0882 21.0818 34.622 21.0818 34.1557 21.0818C33.8448 21.0818 33.8448 21.0818 33.8448 20.8149C33.8448 20.0143 33.8448 19.0803 33.8448 18.2797C33.8448 18.0129 33.8448 18.0129 34.1557 18.0129C35.8654 18.0129 37.5751 18.0129 39.2848 18.0129C39.5956 18.0129 39.5956 18.0129 39.5956 18.2797C39.5956 20.0143 39.4402 21.6155 39.4402 23.3501C39.4402 23.7504 39.2848 24.1506 38.9739 24.4175C36.9534 26.4189 34.622 28.4204 32.2905 30.2884C31.5134 30.8221 30.8917 31.3558 30.1146 31.8895C29.9591 32.023 29.6483 32.1564 29.4928 32.1564C27.7831 32.2898 26.2289 32.2898 24.5192 32.4233C24.2083 32.4233 24.2083 32.4233 24.2083 32.1564C23.8975 27.6198 23.8975 23.0832 23.8975 18.4132Z" fill="#FAFAFB"/>
</svg>
